<?xml version="1.0" encoding="UTF-8" standalone="no"?>
<!-- Created with Inkscape (http://www.inkscape.org/) -->

<svg
   xmlns:dc="http://purl.org/dc/elements/1.1/"
   xmlns:cc="http://creativecommons.org/ns#"
   xmlns:rdf="http://www.w3.org/1999/02/22-rdf-syntax-ns#"
   xmlns:svg="http://www.w3.org/2000/svg"
   xmlns="http://www.w3.org/2000/svg"
   xmlns:sodipodi="http://sodipodi.sourceforge.net/DTD/sodipodi-0.dtd"
   xmlns:inkscape="http://www.inkscape.org/namespaces/inkscape"
   width="100"
   height="75"
   id="svg3891"
   version="1.1"
   inkscape:version="0.48.4 r9939"
   sodipodi:docname="barchart-icon.svg"
   inkscape:export-filename="/home/tryggvi/openspending/wordpress-plugin/openspending/img/barchart-icon.png"
   inkscape:export-xdpi="90"
   inkscape:export-ydpi="90">
  <defs
     id="defs3893">
    <inkscape:path-effect
       effect="spiro"
       id="path-effect3907"
       is_visible="true" />
  </defs>
  <sodipodi:namedview
     id="base"
     pagecolor="#ffffff"
     bordercolor="#666666"
     borderopacity="1.0"
     inkscape:pageopacity="0.0"
     inkscape:pageshadow="2"
     inkscape:zoom="3.7297716"
     inkscape:cx="32.679058"
     inkscape:cy="28.750428"
     inkscape:document-units="px"
     inkscape:current-layer="layer1"
     showgrid="false"
     inkscape:window-width="1366"
     inkscape:window-height="744"
     inkscape:window-x="0"
     inkscape:window-y="24"
     inkscape:window-maximized="1" />
  <metadata
     id="metadata3896">
    <rdf:RDF>
      <cc:Work
         rdf:about="">
        <dc:format>image/svg+xml</dc:format>
        <dc:type
           rdf:resource="http://purl.org/dc/dcmitype/StillImage" />
        <dc:title></dc:title>
      </cc:Work>
    </rdf:RDF>
  </metadata>
  <g
     inkscape:label="Layer 1"
     inkscape:groupmode="layer"
     id="layer1"
     transform="translate(0,-977.36217)">
    <g
       id="g3929"
       transform="translate(-0.35395706,0)">
      <g
         transform="translate(0,-0.24972651)"
         id="g3909">
        <path
           sodipodi:type="arc"
           style="fill:#555555;fill-opacity:1;stroke:none"
           id="path2997-9-2"
           sodipodi:cx="91.283829"
           sodipodi:cy="86.756615"
           sodipodi:rx="42.213055"
           sodipodi:ry="42.517841"
           d="M 133.49688,86.756615 C 133.49688,110.23857 114.59746,129.27446 91.283829,129.27446 67.970202,129.27446 49.070774,110.23857 49.070774,86.756615 49.070774,63.274659 67.970202,44.238773 91.283829,44.238773 114.59746,44.238773 133.49688,63.274659 133.49688,86.756615 z"
           transform="matrix(0.16697223,0,0,0.16697223,-6.7647929,983.73585)" />
        <rect
           style="fill:#555555;fill-opacity:1;stroke:none"
           id="rect3063"
           width="14.097"
           height="54.390095"
           x="1.4285715"
           y="998.2218" />
      </g>
      <g
         transform="translate(0.21683502,-0.24968837)"
         id="g3917">
        <path
           sodipodi:type="arc"
           style="fill:#555555;fill-opacity:1;stroke:none"
           id="path2997-9-2-0"
           sodipodi:cx="91.283829"
           sodipodi:cy="86.756615"
           sodipodi:rx="42.213055"
           sodipodi:ry="42.517841"
           d="M 133.49688,86.756615 C 133.49688,110.23857 114.59746,129.27446 91.283829,129.27446 67.970202,129.27446 49.070774,110.23857 49.070774,86.756615 49.070774,63.274659 67.970202,44.238773 91.283829,44.238773 114.59746,44.238773 133.49688,63.274659 133.49688,86.756615 z"
           transform="matrix(0.16697223,0,0,0.16697223,34.895255,975.1562)" />
        <rect
           style="fill:#555555;fill-opacity:1;stroke:none"
           id="rect3063-1"
           width="14.097"
           height="62.969707"
           x="43.088619"
           y="989.64215" />
      </g>
      <g
         transform="translate(-0.07691002,-0.24977611)"
         id="g3913">
        <path
           sodipodi:type="arc"
           style="fill:#555555;fill-opacity:1;stroke:none"
           id="path2997-9-2-48"
           sodipodi:cx="91.283829"
           sodipodi:cy="86.756615"
           sodipodi:rx="42.213055"
           sodipodi:ry="42.517841"
           d="M 133.49688,86.756615 C 133.49688,110.23857 114.59746,129.27446 91.283829,129.27446 67.970202,129.27446 49.070774,110.23857 49.070774,86.756615 49.070774,63.274659 67.970202,44.238773 91.283829,44.238773 114.59746,44.238773 133.49688,63.274659 133.49688,86.756615 z"
           transform="matrix(0.16697223,0,0,0.16697223,14.25056,993.65605)" />
        <rect
           style="fill:#555555;fill-opacity:1;stroke:none"
           id="rect3063-1-5"
           width="14.097"
           height="44.469917"
           x="22.443924"
           y="1008.142" />
      </g>
      <g
         transform="translate(0,-0.24969981)"
         id="g3925">
        <path
           sodipodi:type="arc"
           style="fill:#555555;fill-opacity:1;stroke:none"
           id="path2997-9-2-55"
           sodipodi:cx="91.283829"
           sodipodi:cy="86.756615"
           sodipodi:rx="42.213055"
           sodipodi:ry="42.517841"
           d="M 133.49688,86.756615 C 133.49688,110.23857 114.59746,129.27446 91.283829,129.27446 67.970202,129.27446 49.070774,110.23857 49.070774,86.756615 49.070774,63.274659 67.970202,44.238773 91.283829,44.238773 114.59746,44.238773 133.49688,63.274659 133.49688,86.756615 z"
           transform="matrix(0.16697223,0,0,0.16697223,76.988978,988.82995)" />
        <rect
           style="fill:#555555;fill-opacity:1;stroke:none"
           id="rect3063-1-5-4"
           width="14.097"
           height="49.295952"
           x="85.182343"
           y="1003.3159" />
      </g>
      <g
         transform="translate(0.24246979,-0.24964259)"
         id="g3921">
        <path
           sodipodi:type="arc"
           style="fill:#555555;fill-opacity:1;stroke:none"
           id="path2997-9-2-42"
           sodipodi:cx="91.283829"
           sodipodi:cy="86.756615"
           sodipodi:rx="42.213055"
           sodipodi:ry="42.517841"
           d="M 133.49688,86.756615 C 133.49688,110.23857 114.59746,129.27446 91.283829,129.27446 67.970202,129.27446 49.070774,110.23857 49.070774,86.756615 49.070774,63.274659 67.970202,44.238773 91.283829,44.238773 114.59746,44.238773 133.49688,63.274659 133.49688,86.756615 z"
           transform="matrix(0.16697223,0,0,0.16697223,55.808062,1003.5762)" />
        <rect
           style="fill:#555555;fill-opacity:1;stroke:none"
           id="rect3063-1-5-4-1"
           width="14.097"
           height="34.54974"
           x="64.001427"
           y="1018.0621" />
      </g>
    </g>
  </g>
</svg>
