<?xml version="1.0" encoding="UTF-8" standalone="no"?>
<!-- Created with Inkscape (http://www.inkscape.org/) -->

<svg
   xmlns:dc="http://purl.org/dc/elements/1.1/"
   xmlns:cc="http://creativecommons.org/ns#"
   xmlns:rdf="http://www.w3.org/1999/02/22-rdf-syntax-ns#"
   xmlns:svg="http://www.w3.org/2000/svg"
   xmlns="http://www.w3.org/2000/svg"
   xmlns:sodipodi="http://sodipodi.sourceforge.net/DTD/sodipodi-0.dtd"
   xmlns:inkscape="http://www.inkscape.org/namespaces/inkscape"
   width="100"
   height="75"
   id="svg3891"
   version="1.1"
   inkscape:version="0.48.4 r9939"
   sodipodi:docname="New document 6">
  <defs
     id="defs3893" />
  <sodipodi:namedview
     id="base"
     pagecolor="#ffffff"
     bordercolor="#666666"
     borderopacity="1.0"
     inkscape:pageopacity="0.0"
     inkscape:pageshadow="2"
     inkscape:zoom="1.4"
     inkscape:cx="142.75727"
     inkscape:cy="107.33815"
     inkscape:document-units="px"
     inkscape:current-layer="layer1"
     showgrid="false"
     inkscape:window-width="1366"
     inkscape:window-height="744"
     inkscape:window-x="0"
     inkscape:window-y="24"
     inkscape:window-maximized="1" />
  <metadata
     id="metadata3896">
    <rdf:RDF>
      <cc:Work
         rdf:about="">
        <dc:format>image/svg+xml</dc:format>
        <dc:type
           rdf:resource="http://purl.org/dc/dcmitype/StillImage" />
        <dc:title></dc:title>
      </cc:Work>
    </rdf:RDF>
  </metadata>
  <g
     inkscape:label="Layer 1"
     inkscape:groupmode="layer"
     id="layer1"
     transform="translate(0,-977.36217)">
    <g
       id="g5014"
       transform="matrix(0.52534771,0,0,0.52534771,-34.055636,838.75546)">
      <path
         transform="matrix(0.91397849,0,0,0.91397849,79.7568,255.20553)"
         d="M 133.49688,86.756615 C 133.49688,110.23857 114.59746,129.27446 91.283829,129.27446 67.970202,129.27446 49.070774,110.23857 49.070774,86.756615 49.070774,63.274659 67.970202,44.238773 91.283829,44.238773 114.59746,44.238773 133.49688,63.274659 133.49688,86.756615 z"
         sodipodi:ry="42.517841"
         sodipodi:rx="42.213055"
         sodipodi:cy="86.756615"
         sodipodi:cx="91.283829"
         id="path2997"
         style="fill:#555555;fill-opacity:1;stroke:none"
         sodipodi:type="arc" />
      <path
         transform="matrix(0.44444442,0,0,0.44444442,173.32926,251.44174)"
         d="M 133.49688,86.756615 C 133.49688,110.23857 114.59746,129.27446 91.283829,129.27446 67.970202,129.27446 49.070774,110.23857 49.070774,86.756615 49.070774,63.274659 67.970202,44.238773 91.283829,44.238773 114.59746,44.238773 133.49688,63.274659 133.49688,86.756615 z"
         sodipodi:ry="42.517841"
         sodipodi:rx="42.213055"
         sodipodi:cy="86.756615"
         sodipodi:cx="91.283829"
         id="path2997-9"
         style="fill:#555555;fill-opacity:1;stroke:none"
         sodipodi:type="arc" />
      <path
         transform="matrix(0.31783184,0,0,0.31783184,96.954138,251.09956)"
         d="M 133.49688,86.756615 C 133.49688,110.23857 114.59746,129.27446 91.283829,129.27446 67.970202,129.27446 49.070774,110.23857 49.070774,86.756615 49.070774,63.274659 67.970202,44.238773 91.283829,44.238773 114.59746,44.238773 133.49688,63.274659 133.49688,86.756615 z"
         sodipodi:ry="42.517841"
         sodipodi:rx="42.213055"
         sodipodi:cy="86.756615"
         sodipodi:cx="91.283829"
         id="path2997-9-2"
         style="fill:#555555;fill-opacity:1;stroke:none"
         sodipodi:type="arc" />
      <path
         transform="matrix(0.29617119,0,0,0.29617119,70.44471,321.75125)"
         d="M 133.49688,86.756615 C 133.49688,110.23857 114.59746,129.27446 91.283829,129.27446 67.970202,129.27446 49.070774,110.23857 49.070774,86.756615 49.070774,63.274659 67.970202,44.238773 91.283829,44.238773 114.59746,44.238773 133.49688,63.274659 133.49688,86.756615 z"
         sodipodi:ry="42.517841"
         sodipodi:rx="42.213055"
         sodipodi:cy="86.756615"
         sodipodi:cx="91.283829"
         id="path2997-9-2-9"
         style="fill:#555555;fill-opacity:1;stroke:none"
         sodipodi:type="arc" />
      <path
         transform="matrix(0.1063623,0,0,0.1063623,90.121548,301.80292)"
         d="M 133.49688,86.756615 C 133.49688,110.23857 114.59746,129.27446 91.283829,129.27446 67.970202,129.27446 49.070774,110.23857 49.070774,86.756615 49.070774,63.274659 67.970202,44.238773 91.283829,44.238773 114.59746,44.238773 133.49688,63.274659 133.49688,86.756615 z"
         sodipodi:ry="42.517841"
         sodipodi:rx="42.213055"
         sodipodi:cy="86.756615"
         sodipodi:cx="91.283829"
         id="path2997-9-2-4"
         style="fill:#555555;fill-opacity:1;stroke:none"
         sodipodi:type="arc" />
      <path
         transform="matrix(0.08127269,0,0,0.08127269,157.1868,260.24263)"
         d="M 133.49688,86.756615 C 133.49688,110.23857 114.59746,129.27446 91.283829,129.27446 67.970202,129.27446 49.070774,110.23857 49.070774,86.756615 49.070774,63.274659 67.970202,44.238773 91.283829,44.238773 114.59746,44.238773 133.49688,63.274659 133.49688,86.756615 z"
         sodipodi:ry="42.517841"
         sodipodi:rx="42.213055"
         sodipodi:cy="86.756615"
         sodipodi:cx="91.283829"
         id="path2997-9-2-7"
         style="fill:#555555;fill-opacity:1;stroke:none"
         sodipodi:type="arc" />
      <path
         transform="matrix(0.19238381,0,0,0.19238381,209.33931,333.96236)"
         d="M 133.49688,86.756615 C 133.49688,110.23857 114.59746,129.27446 91.283829,129.27446 67.970202,129.27446 49.070774,110.23857 49.070774,86.756615 49.070774,63.274659 67.970202,44.238773 91.283829,44.238773 114.59746,44.238773 133.49688,63.274659 133.49688,86.756615 z"
         sodipodi:ry="42.517841"
         sodipodi:rx="42.213055"
         sodipodi:cy="86.756615"
         sodipodi:cx="91.283829"
         id="path2997-9-2-5"
         style="fill:#555555;fill-opacity:1;stroke:none"
         sodipodi:type="arc" />
      <path
         transform="matrix(0.22396902,0,0,0.22396902,187.97821,362.43429)"
         d="M 133.49688,86.756615 C 133.49688,110.23857 114.59746,129.27446 91.283829,129.27446 67.970202,129.27446 49.070774,110.23857 49.070774,86.756615 49.070774,63.274659 67.970202,44.238773 91.283829,44.238773 114.59746,44.238773 133.49688,63.274659 133.49688,86.756615 z"
         sodipodi:ry="42.517841"
         sodipodi:rx="42.213055"
         sodipodi:cy="86.756615"
         sodipodi:cx="91.283829"
         id="path2997-9-2-79"
         style="fill:#555555;fill-opacity:1;stroke:none"
         sodipodi:type="arc" />
      <path
         transform="matrix(0.18064772,0,0,0.18064772,160.23486,383.24749)"
         d="M 133.49688,86.756615 C 133.49688,110.23857 114.59746,129.27446 91.283829,129.27446 67.970202,129.27446 49.070774,110.23857 49.070774,86.756615 49.070774,63.274659 67.970202,44.238773 91.283829,44.238773 114.59746,44.238773 133.49688,63.274659 133.49688,86.756615 z"
         sodipodi:ry="42.517841"
         sodipodi:rx="42.213055"
         sodipodi:cy="86.756615"
         sodipodi:cx="91.283829"
         id="path2997-9-2-46"
         style="fill:#555555;fill-opacity:1;stroke:none"
         sodipodi:type="arc" />
      <path
         transform="matrix(0.21747341,0,0,0.21747341,120.02458,377.04659)"
         d="M 133.49688,86.756615 C 133.49688,110.23857 114.59746,129.27446 91.283829,129.27446 67.970202,129.27446 49.070774,110.23857 49.070774,86.756615 49.070774,63.274659 67.970202,44.238773 91.283829,44.238773 114.59746,44.238773 133.49688,63.274659 133.49688,86.756615 z"
         sodipodi:ry="42.517841"
         sodipodi:rx="42.213055"
         sodipodi:cy="86.756615"
         sodipodi:cx="91.283829"
         id="path2997-9-2-6"
         style="fill:#555555;fill-opacity:1;stroke:none"
         sodipodi:type="arc" />
      <path
         transform="matrix(0.12428344,0,0,0.12428344,104.17673,369.58719)"
         d="M 133.49688,86.756615 C 133.49688,110.23857 114.59746,129.27446 91.283829,129.27446 67.970202,129.27446 49.070774,110.23857 49.070774,86.756615 49.070774,63.274659 67.970202,44.238773 91.283829,44.238773 114.59746,44.238773 133.49688,63.274659 133.49688,86.756615 z"
         sodipodi:ry="42.517841"
         sodipodi:rx="42.213055"
         sodipodi:cy="86.756615"
         sodipodi:cx="91.283829"
         id="path2997-9-2-2"
         style="fill:#555555;fill-opacity:1;stroke:none"
         sodipodi:type="arc" />
    </g>
  </g>
</svg>
